<svg xmlns="http://www.w3.org/2000/svg" version="1.1" xmlns:xlink="http://www.w3.org/1999/xlink" xmlns:svgjs="http://svgjs.com/svgjs" width="1440" height="560" preserveAspectRatio="none" viewBox="0 0 1440 560"><g mask="url(&quot;#SvgjsMask1002&quot;)" fill="none"><path d="M693.77 584.49C835.2 562.09 908.22 222.04 1135.95 220.43 1363.68 218.82 1461.76 364.17 1578.13 366.03" stroke="rgba(109, 131, 242, 1)" stroke-width="2"></path><path d="M667.08 594.11C817.04 562.73 877 177.85 1112.8 173.53 1348.59 169.21 1443.62 284.68 1558.51 285.53" stroke="rgba(109, 131, 242, 1)" stroke-width="2"></path><path d="M836.22 594.44C968.07 576.81 1044.91 272.68 1259.61 272.18 1474.3 271.68 1568.11 447.74 1682.99 451.38" stroke="rgba(109, 131, 242, 1)" stroke-width="2"></path><path d="M675.97 667.56C807.94 587.1 728.19 137.01 976.08 127.03 1223.96 117.05 1423.11 249.6 1576.29 250.23" stroke="rgba(109, 131, 242, 1)" stroke-width="2"></path><path d="M752.5 654.08C870.29 612.94 795.53 282.92 1064.35 264.45 1333.18 245.98 1527.94 119.81 1688.06 118.85" stroke="rgba(109, 131, 242, 1)" stroke-width="2"></path></g><defs><mask id="SvgjsMask1002"><rect width="1440" height="560" fill="#ffffff"></rect></mask></defs></svg>