<svg xmlns="http://www.w3.org/2000/svg" version="1.1" xmlns:xlink="http://www.w3.org/1999/xlink" xmlns:svgjs="http://svgjs.com/svgjs" width="1600" height="600" preserveAspectRatio="none" viewBox="0 0 1600 600"><g mask="url(&quot;#SvgjsMask1084&quot;)" fill="none"><path d="M758 373L757 821" stroke-width="6" stroke="url(#SvgjsLinearGradient1085)" stroke-linecap="round" class="Up"></path><path d="M1443 285L1442 34" stroke-width="6" stroke="url(#SvgjsLinearGradient1086)" stroke-linecap="round" class="Down"></path><path d="M369 447L368 139" stroke-width="6" stroke="url(#SvgjsLinearGradient1086)" stroke-linecap="round" class="Down"></path><path d="M595 63L594 -117" stroke-width="6" stroke="url(#SvgjsLinearGradient1085)" stroke-linecap="round" class="Up"></path><path d="M55 470L54 639" stroke-width="8" stroke="url(#SvgjsLinearGradient1086)" stroke-linecap="round" class="Down"></path><path d="M269 313L268 147" stroke-width="8" stroke="url(#SvgjsLinearGradient1085)" stroke-linecap="round" class="Up"></path><path d="M870 480L869 244" stroke-width="10" stroke="url(#SvgjsLinearGradient1086)" stroke-linecap="round" class="Down"></path><path d="M1029 132L1028 -296" stroke-width="8" stroke="url(#SvgjsLinearGradient1086)" stroke-linecap="round" class="Down"></path><path d="M126 375L125 538" stroke-width="10" stroke="url(#SvgjsLinearGradient1086)" stroke-linecap="round" class="Down"></path><path d="M1471 528L1470 278" stroke-width="8" stroke="url(#SvgjsLinearGradient1085)" stroke-linecap="round" class="Up"></path><path d="M269 207L268 -4" stroke-width="8" stroke="url(#SvgjsLinearGradient1086)" stroke-linecap="round" class="Down"></path><path d="M601 307L600 122" stroke-width="8" stroke="url(#SvgjsLinearGradient1085)" stroke-linecap="round" class="Up"></path><path d="M88 244L87 -37" stroke-width="8" stroke="url(#SvgjsLinearGradient1086)" stroke-linecap="round" class="Down"></path><path d="M1229 436L1228 606" stroke-width="6" stroke="url(#SvgjsLinearGradient1086)" stroke-linecap="round" class="Down"></path><path d="M448 534L447 908" stroke-width="10" stroke="url(#SvgjsLinearGradient1086)" stroke-linecap="round" class="Down"></path><path d="M109 329L108 745" stroke-width="8" stroke="url(#SvgjsLinearGradient1086)" stroke-linecap="round" class="Down"></path><path d="M1061 596L1060 368" stroke-width="8" stroke="url(#SvgjsLinearGradient1085)" stroke-linecap="round" class="Up"></path><path d="M1549 126L1548 533" stroke-width="8" stroke="url(#SvgjsLinearGradient1085)" stroke-linecap="round" class="Up"></path><path d="M135 457L134 292" stroke-width="8" stroke="url(#SvgjsLinearGradient1085)" stroke-linecap="round" class="Up"></path><path d="M396 448L395 778" stroke-width="6" stroke="url(#SvgjsLinearGradient1086)" stroke-linecap="round" class="Down"></path><path d="M1571 569L1570 970" stroke-width="10" stroke="url(#SvgjsLinearGradient1086)" stroke-linecap="round" class="Down"></path><path d="M8 491L7 808" stroke-width="10" stroke="url(#SvgjsLinearGradient1086)" stroke-linecap="round" class="Down"></path><path d="M1505 166L1504 486" stroke-width="8" stroke="url(#SvgjsLinearGradient1086)" stroke-linecap="round" class="Down"></path><path d="M1396 445L1395 214" stroke-width="10" stroke="url(#SvgjsLinearGradient1085)" stroke-linecap="round" class="Up"></path><path d="M671 550L670 761" stroke-width="8" stroke="url(#SvgjsLinearGradient1086)" stroke-linecap="round" class="Down"></path><path d="M156 194L155 601" stroke-width="8" stroke="url(#SvgjsLinearGradient1085)" stroke-linecap="round" class="Up"></path><path d="M1566 157L1565 587" stroke-width="10" stroke="url(#SvgjsLinearGradient1085)" stroke-linecap="round" class="Up"></path><path d="M513 395L512 660" stroke-width="10" stroke="url(#SvgjsLinearGradient1085)" stroke-linecap="round" class="Up"></path><path d="M1456 313L1455 -7" stroke-width="10" stroke="url(#SvgjsLinearGradient1085)" stroke-linecap="round" class="Up"></path><path d="M656 54L655 -288" stroke-width="10" stroke="url(#SvgjsLinearGradient1086)" stroke-linecap="round" class="Down"></path><path d="M736 361L735 742" stroke-width="8" stroke="url(#SvgjsLinearGradient1086)" stroke-linecap="round" class="Down"></path><path d="M594 452L593 249" stroke-width="6" stroke="url(#SvgjsLinearGradient1085)" stroke-linecap="round" class="Up"></path><path d="M1414 26L1413 311" stroke-width="10" stroke="url(#SvgjsLinearGradient1086)" stroke-linecap="round" class="Down"></path><path d="M296 122L295 321" stroke-width="10" stroke="url(#SvgjsLinearGradient1086)" stroke-linecap="round" class="Down"></path><path d="M681 33L680 321" stroke-width="8" stroke="url(#SvgjsLinearGradient1086)" stroke-linecap="round" class="Down"></path><path d="M851 175L850 -234" stroke-width="6" stroke="url(#SvgjsLinearGradient1085)" stroke-linecap="round" class="Up"></path><path d="M120 48L119 497" stroke-width="10" stroke="url(#SvgjsLinearGradient1085)" stroke-linecap="round" class="Up"></path><path d="M1046 302L1045 43" stroke-width="8" stroke="url(#SvgjsLinearGradient1086)" stroke-linecap="round" class="Down"></path><path d="M1598 261L1597 -161" stroke-width="10" stroke="url(#SvgjsLinearGradient1085)" stroke-linecap="round" class="Up"></path><path d="M182 524L181 242" stroke-width="10" stroke="url(#SvgjsLinearGradient1086)" stroke-linecap="round" class="Down"></path></g><defs><mask id="SvgjsMask1084"><rect width="1600" height="600" fill="#ffffff"></rect></mask><linearGradient x1="0%" y1="100%" x2="0%" y2="0%" id="SvgjsLinearGradient1085"><stop stop-color="rgba(109, 131, 242, 0)" offset="0"></stop><stop stop-color="rgba(109, 131, 242, 1)" offset="1"></stop></linearGradient><linearGradient x1="0%" y1="0%" x2="0%" y2="100%" id="SvgjsLinearGradient1086"><stop stop-color="rgba(109, 131, 242, 0)" offset="0"></stop><stop stop-color="rgba(109, 131, 242, 1)" offset="1"></stop></linearGradient></defs></svg>